<?xml version="1.0" encoding="utf-8"?>
<!-- Generator: Adobe Illustrator 19.0.1, SVG Export Plug-In . SVG Version: 6.00 Build 0)  -->
<svg version="1.1" id="Layer_1" xmlns="http://www.w3.org/2000/svg" xmlns:xlink="http://www.w3.org/1999/xlink" x="0px" y="0px"
	 viewBox="0 0 128 128" style="enable-background:new 0 0 128 128;" xml:space="preserve">
<style type="text/css">
	.st0{fill:#BBDEFB;}
	.st1{fill:#E3F2FD;}
	.st2{fill:#2196F3;}
	.st3{fill:#FFFFFF;}
</style>
<circle class="st0" cx="64" cy="64" r="62"/>
<g>
	<path class="st1" d="M43.7,67.5c1.3-0.7,3.1-1.1,4.6-1.1c5.9,0-0.4-10.1,0.4-13.1c0.9-3.1,0.4-10.7-5-10.5c-0.2,0-0.4,0-0.9,0
		c-3.9-0.2,3.7,14.2-1.5,16.4c-5.5,2.2-5,1.7-4.2,7.7C37.8,71,40.2,69,43.7,67.5z"/>
	<path class="st1" d="M52.9,50.2c0.7,0,1.3-1.1,1.5-2c0.2-1.1-0.4-1.7-1.5-1.3c-0.2,0-0.2,0.2-0.4,0.2c-1.5,0.4-1.5,1.3-0.4,2.6
		C52.5,50,52.7,50.2,52.9,50.2z"/>
	<path class="st1" d="M78.3,15.9C75,20.3,69.5,24,65.4,28.4c-3.9,4.4-0.9,12.5,2.8,18.1c3.9,5.7,3.7-1.1,6.3-3.3
		c2.8-2,5.2,2.4,6.3,6.3c0.9,3.1,2.6,0.2,4.4-1.1c0.7-0.4,1.3-0.9,2-0.9c2.8,0,3.9-3.7,7.2-6.8c3.3-3.3-2.8-7.2-1.3-11.6
		s6.3-6.3,7.7-10.9c0.3-1.2,1.3-2,2.4-2.3C98.1,11.8,92.3,8.4,86,6c-0.3,0.4-0.7,0.7-1,1.1C82.2,10.4,79.6,13.7,78.3,15.9z"/>
	<path class="st1" d="M54.7,63.1c0.2,0.4,0.7,0.4,0.9,0.4c0.7,0,1.3-1.1,1.5-2c0.2-1.1-0.4-1.7-1.5-1.3c-0.2,0-0.2,0.2-0.4,0.2
		C53.8,60.9,53.6,61.6,54.7,63.1z"/>
	<path class="st1" d="M100.4,33.2c2,4.8,6.1,2,10.9,1.3c4.8-0.9,5.2,2.4,1.3,4.4c-3.9,2-8.7,0-5.2,3.7c3.7,3.7-0.4,3.3-5.2,3.3
		s0.9,4.8-2.4,7.7s-6.3-0.9-10.9-0.9c-1.3,0-2.2,0.2-3.1,0.4c-2.2,0.7-3.9,1.5-7.7,1.5c-5.2,0-3.3-3.7-6.3-3.7
		c-3.3,0-2.4,6.1-5.2,8.7c-2.4,2.4-6.3,5.5-10.7,7c-0.7,0.2-1.3,0.4-1.7,0.7c-0.2,0-0.7,0.2-0.9,0.2c-4.2,0.9-5.2-0.4-7.2,3.1
		c-2,3.7-3.3,8.1,0.4,11.2c3.1,2.6,0.9,6.1-2.4,7.2c-0.7,0.2-1.3,0.2-2,0.2c-4.2,0-5.2-0.7-8.7-0.9h-0.4c-3.9,0-2,3.7-3.9,7.2
		c-2,3.7,0.9,5.2,0.9,9.2c0,2,1.5,2.2,3.7,2.2c2,0,4.4-0.4,5.9,0.7c1.7,1.1,3.3,1.1,4.8,0.4c1.3-0.4,2.6-1.3,3.5-2.2
		c2-1.5,3.3-1.1,2.8-3.9c-0.2-2,1.1-2.8,2.8-3.1c0.7,0,1.3-0.2,2-0.2c0.2,0,0.4,0,0.7,0c2-0.7,2.4-4.4,1.3-8.3
		c-1.3-4.4,6.3-2.8,12.9-2.8c6.3,0,7.2,4.4,11.6,6.1c2.2,0.9,3.5,2.2,4.2,4.2c0.7,2,0.7,4.4,0.7,7c0,5.7,4.4-2,5.2-4.4
		c0.9-2.4,2.4-8.1-0.9-8.1c-2.4,0-3.5-0.7-5.2-2.4c-0.4-0.4-1.1-1.1-1.7-1.7c-2.6-2.6-0.9-4.2,1.7-2.6c0.2,0.2,0.4,0.4,0.7,0.7
		c2.8,2.4,3.9,3.7,6.1,6.1c2,2.4,3.7,4.8,5.7,8.7s3.7,8.1,6.8,6.3c3.3-1.5-0.4-7.7,2.8-7.2s6.8-2,8.5-5.2c1.5-3.3,0.4-3.9,0.4-8.7
		c0-3.3,4.1-5.6,7.1-5.8c1.4-5.2,2.2-10.7,2.2-16.3c0-17.4-7.2-33.2-18.8-44.4C103.9,23.3,98.5,28.5,100.4,33.2z"/>
	<path class="st1" d="M90.5,120.1c-0.8-0.5-1.6-1-2.4-1.4c-0.7-0.4-1.3-0.7-2-1.1c-4.2-2-9.6-3.5-9-8.5c0.9-6.1-4.8-3.3-12.5-3.3
		c-3.9,0-6.3,0.9-8.5,1.7c-0.9,0.4-1.7,0.7-2.6,0.9c-1.5,0.4-3.3,0.9-5.7,0.9c-1.3,0-2.6,0-3.5,0.2c-4.2,0.7-5.2,2.6-8.5,3.3
		c-0.9,0.2-1.7,0.4-2.4,0.9c-1.2,0.6-2.2,1.5-3,2.5c9.7,6.2,21.2,9.8,33.5,9.8C73.5,126,82.5,123.9,90.5,120.1z"/>
	<path class="st1" d="M33,65.7c0.9-0.2,1.7-1.1,2.4-2.4c1.7-4.2,1.7-11.4-1.7-10.9c-0.2,0-0.4,0-0.7,0c-5.5-0.4-2.6,5.7-3.5,9.6
		C28.9,64.9,30.8,66.4,33,65.7z"/>
</g>
<path class="st2" d="M89,56c0,19-25,39-25,39S39,75,39,56c0-13.8,11.2-25,25-25S89,42.2,89,56z"/>
<circle class="st3" cx="64" cy="56" r="16"/>
</svg>
