<?xml version="1.0" encoding="utf-8"?>
<!-- Generator: Adobe Illustrator 19.0.1, SVG Export Plug-In . SVG Version: 6.00 Build 0)  -->
<svg version="1.1" id="Layer_1" xmlns="http://www.w3.org/2000/svg" xmlns:xlink="http://www.w3.org/1999/xlink" x="0px" y="0px"
	 viewBox="0 0 128 128" style="enable-background:new 0 0 128 128;" xml:space="preserve">
<style type="text/css">
	.st0{fill:#BBDEFB;}
	.st1{fill:#FFFFFF;}
	.st2{fill:#E3F2FD;}
	.st3{fill:#2196F3;}
	.st4{fill:none;stroke:#FFFFFF;stroke-width:4;stroke-linecap:round;stroke-miterlimit:10;}
</style>
<circle class="st0" cx="64" cy="64" r="62"/>
<path class="st1" d="M24,98h80c2.2,0,4-1.8,4-4V34c0-2.2-1.8-4-4-4H24c-2.2,0-4,1.8-4,4v60C20,96.2,21.8,98,24,98z"/>
<path class="st2" d="M40,62H28c-1.1,0-2-0.9-2-2v-8c0-1.1,0.9-2,2-2h12c1.1,0,2,0.9,2,2v8C42,61.1,41.1,62,40,62z"/>
<path class="st2" d="M40,78H28c-1.1,0-2-0.9-2-2v-8c0-1.1,0.9-2,2-2h12c1.1,0,2,0.9,2,2v8C42,77.1,41.1,78,40,78z"/>
<path class="st2" d="M60,62H48c-1.1,0-2-0.9-2-2v-8c0-1.1,0.9-2,2-2h12c1.1,0,2,0.9,2,2v8C62,61.1,61.1,62,60,62z"/>
<path class="st2" d="M60,78H48c-1.1,0-2-0.9-2-2v-8c0-1.1,0.9-2,2-2h12c1.1,0,2,0.9,2,2v8C62,77.1,61.1,78,60,78z"/>
<path class="st2" d="M80,62H68c-1.1,0-2-0.9-2-2v-8c0-1.1,0.9-2,2-2h12c1.1,0,2,0.9,2,2v8C82,61.1,81.1,62,80,62z"/>
<path class="st2" d="M80,78H68c-1.1,0-2-0.9-2-2v-8c0-1.1,0.9-2,2-2h12c1.1,0,2,0.9,2,2v8C82,77.1,81.1,78,80,78z"/>
<path class="st2" d="M100,62H88c-1.1,0-2-0.9-2-2v-8c0-1.1,0.9-2,2-2h12c1.1,0,2,0.9,2,2v8C102,61.1,101.1,62,100,62z"/>
<path class="st2" d="M100,78H88c-1.1,0-2-0.9-2-2v-8c0-1.1,0.9-2,2-2h12c1.1,0,2,0.9,2,2v8C102,77.1,101.1,78,100,78z"/>
<path class="st2" d="M108,46H20V34c0-2.2,1.8-4,4-4h80c2.2,0,4,1.8,4,4V46z"/>
<path class="st2" d="M20,82h88v12c0,2.2-1.8,4-4,4H24c-2.2,0-4-1.8-4-4V82z"/>
<circle class="st1" cx="100" cy="38" r="2"/>
<circle class="st1" cx="94" cy="38" r="2"/>
<circle class="st1" cx="88" cy="38" r="2"/>
<g>
	<path class="st3" d="M55.4,88.6C38.1,88.6,24,74.4,24,57.1c0-17.3,14.1-31.4,31.4-31.4c17.3,0,31.4,14.1,31.4,31.4
		C86.9,74.4,72.8,88.6,55.4,88.6z M55.4,34.2c-12.7,0-22.9,10.3-22.9,22.9s10.3,22.9,22.9,22.9s22.9-10.3,22.9-22.9
		S68.1,34.2,55.4,34.2z"/>
</g>
<rect x="78.1" y="75.5" transform="matrix(0.7071 -0.7071 0.7071 0.7071 -33.6206 80.0128)" class="st3" width="3.4" height="10.2"/>
<path class="st3" d="M103.6,101.2l-3.2,3.2c-0.8,0.8-2,0.8-2.8,0L78.8,85.6c-0.8-0.8-0.8-2,0-2.8l3.2-3.2c0.8-0.8,2-0.8,2.8,0
	l18.8,18.8C104.4,99.2,104.4,100.5,103.6,101.2z"/>
<path class="st4" d="M55,39.1c-9.9,0-17.9,8.1-17.9,17.9"/>
</svg>
