<?xml version="1.0" encoding="utf-8"?>
<!-- Generator: Adobe Illustrator 19.0.1, SVG Export Plug-In . SVG Version: 6.00 Build 0)  -->
<svg version="1.1" id="Layer_1" xmlns="http://www.w3.org/2000/svg" xmlns:xlink="http://www.w3.org/1999/xlink" x="0px" y="0px"
	 viewBox="0 0 128 128" style="enable-background:new 0 0 128 128;" xml:space="preserve">
<style type="text/css">
	.st0{fill:#BBDEFB;}
	.st1{fill:#FFFFFF;}
	.st2{fill:#2196F3;}
</style>
<circle class="st0" cx="64" cy="64" r="62"/>
<path class="st1" d="M28,62l8-8V26c0-2.2,1.8-4,4-4h48c2.2,0,4,1.8,4,4v32c0,2.2-1.8,4-4,4H28z"/>
<path class="st2" d="M100,66l-8,8v28c0,2.2-1.8,4-4,4H40c-2.2,0-4-1.8-4-4V70c0-2.2,1.8-4,4-4H100z"/>
<g>
	<path class="st1" d="M81.6,98.5l-2,2.4c-6.1-1.8-11.1-4.1-14.7-7c-3.1,2.7-8.1,5-14.8,7.1L48,98.6c7.4-2.2,12.4-4.4,14.8-6.5
		c-3.6-3.4-5.9-8-6.9-13.6h-6.4v-2.5h13.7v-5.7h2.9v5.7h13.7v2.5h-6C72.6,84.1,70.3,88.6,67,92C70.6,94.6,75.5,96.8,81.6,98.5z
		 M70.8,78.4H58.9c0.6,4.8,2.6,8.7,6,11.7C67.8,87.2,69.8,83.3,70.8,78.4z"/>
</g>
<g>
	<path class="st2" d="M70.3,48.8H58.9L56.2,56h-3.5l10.4-27h3l10.3,27h-3.5L70.3,48.8z M59.9,46h9.4l-4.6-12.8L59.9,46z"/>
</g>
</svg>
